<svg width="51" height="71" viewBox="0 0 51 71" fill="none" xmlns="http://www.w3.org/2000/svg">
<g clip-path="url(#clip0)">
<path d="M50.4215 13.8234L45.8443 64.6822L25.2694 70.3397L4.75122 64.6902L0.178833 13.8234H50.4215Z" fill="#264DE4"/>
<path d="M41.9256 61.4436L45.8372 17.9825H25.3002V66.0153L41.9256 61.4436Z" fill="#2965F1"/>
<path d="M10.6609 36.8483L11.2246 43.0868H25.3001V36.8483H10.6609Z" fill="#EBEBEB"/>
<path d="M25.3002 24.2212H25.2784H9.5282L10.1 30.4599H25.3002V24.2212Z" fill="#EBEBEB"/>
<path d="M25.3002 59.5413V53.0506L25.2726 53.0578L18.2676 51.1817L17.8198 46.2062H14.4159H11.5057L12.3869 56.0017L25.2712 59.5493L25.3002 59.5413Z" fill="#EBEBEB"/>
<path d="M12.0032 0H19.6213V3.15979H15.1889V6.31958H19.6213V9.47938H12.0032V0Z" fill="black"/>
<path d="M21.1448 0H28.7629V2.74765H24.3305V3.29717H28.7629V9.61676H21.1448V6.73173H25.5771V6.1822H21.1448V0Z" fill="black"/>
<path d="M30.2865 0H37.9046V2.74765H33.4723V3.29717H37.9046V9.61676H30.2865V6.73173H34.7189V6.1822H30.2865V0Z" fill="black"/>
<path d="M33.0237 43.0868L32.2936 51.1778L25.2784 53.0558V59.5463L38.173 56.0017L38.2676 54.9477L39.7456 38.5235L39.8991 36.8483L41.0346 24.2212H25.2784V30.4599H34.1415L33.5692 36.8483H25.2784V43.0868H33.0237Z" fill="white"/>
</g>
<defs>
<clipPath id="clip0">
<rect width="50.2427" height="70.3397" fill="white" transform="translate(0.178833)"/>
</clipPath>
</defs>
</svg>
